<svg width="87" height="87" viewBox="0 0 87 87" fill="none" xmlns="http://www.w3.org/2000/svg">
<path d="M87 0V56.0742L81.9023 61.1719H5.09766L0 56.0742V0H87Z" fill="#FDBF00"/>
<path d="M87 0V56.0742L81.9023 61.1719H43.5V0H87Z" fill="#FF9100"/>
<path d="M30.7559 69.1582H56.2441V84.4512H30.7559V69.1582Z" fill="#DADAE5"/>
<path d="M43.5 69.1582H56.2441V84.4512H43.5V69.1582Z" fill="#C9C9D3"/>
<path d="M0 56.0742H87V71.707H0V56.0742Z" fill="#EFEFF4"/>
<path d="M43.5 56.0742H87V71.707H43.5V56.0742Z" fill="#DADAE5"/>
<path d="M20.5605 81.9023H66.4395V87H20.5605V81.9023Z" fill="#EFEFF4"/>
<path d="M43.5 81.9023H66.4395V87H43.5V81.9023Z" fill="#DADAE5"/>
<path d="M40.9512 10.1953V25.4883H76.8047V10.1953H40.9512Z" fill="#EFEFF4"/>
<path d="M40.9512 30.5859V45.8789H76.8047V30.5859H40.9512Z" fill="#EFEFF4"/>
<path d="M23.1094 10.1953C18.8779 10.1953 15.4629 13.6103 15.4629 17.8418C15.4629 22.0726 18.8779 25.4883 23.1094 25.4883C27.3408 25.4883 30.7559 22.0726 30.7559 17.8418C30.7559 13.6103 27.3408 10.1953 23.1094 10.1953Z" fill="#676E74"/>
<path d="M23.1094 25.4883C16.0749 25.4883 10.1953 31.1979 10.1953 38.2324V45.8789H35.8535V38.2324C35.8535 31.1979 30.1439 25.4883 23.1094 25.4883Z" fill="#676E74"/>
<path d="M43.5 10.1953H76.8047V25.4883H43.5V10.1953Z" fill="#DADAE5"/>
<path d="M43.5 30.5859H76.8047V45.8789H43.5V30.5859Z" fill="#DADAE5"/>
</svg>
