<svg width="16" height="16" viewBox="0 0 16 16" fill="none" xmlns="http://www.w3.org/2000/svg">
<g clip-path="url(#clip0)">
<path d="M4.96558 9.93091L5.24133 14.6206H0.551758V10.2068L4.96558 9.93091Z" fill="#464F5D"/>
<path d="M4.97937 4.13794H2.20691V0.551758H4.96558V3.24133C4.96558 3.54627 4.97107 3.84192 4.97937 4.13794Z" fill="#2C3E50"/>
<path d="M4.96558 0.275879V1.10339H2.20691V0.275879C2.20691 0.123535 2.33044 0 2.48279 0H4.6897C4.84204 0 4.96558 0.123535 4.96558 0.275879Z" fill="#35495E"/>
<path d="M2.20691 4.73389L3.3103 9.65527L0.849609 9.10352L1.49512 7.79321C1.96326 6.84131 2.20679 5.79468 2.20691 4.73389Z" fill="#35495E"/>
<path d="M6.15723 4.34216L4.96558 6.89673V10.207L2.20691 9.10352V2.20703H4.96558C5.04626 3.0542 5.47852 3.82874 6.15723 4.34216Z" fill="#464F5D"/>
<path d="M14.8966 11.3102V13.793L10.0171 15.1722L10.3448 9.65503L14.8966 11.3102Z" fill="#464F5D"/>
<path d="M1.93103 9.10327V11.3102H0.275879C0.123535 11.3102 0 11.1868 0 11.0343V9.37915C0 9.22681 0.123535 9.10327 0.275879 9.10327H1.93103Z" fill="#35495E"/>
<path d="M16 9.37915V11.0343C16 11.1868 15.8765 11.3102 15.7241 11.3102H15.4482L14.2069 12.1378V9.10327H15.7241C15.8765 9.10327 16 9.22681 16 9.37915Z" fill="#35495E"/>
<path d="M1.10339 9.10327H5.10339V11.3102H1.10339V9.10327Z" fill="#2C3E50"/>
<path d="M13.7931 0.827637V3.3103H11.0206C11.0289 3.10535 11.0344 2.90063 11.0344 2.6897V0.827637H13.7931Z" fill="#2C3E50"/>
<path d="M13.7931 0.275879V1.10339H11.0344V0.275879C11.0344 0.123535 11.158 0 11.3103 0H13.5172C13.6696 0 13.7931 0.123535 13.7931 0.275879Z" fill="#35495E"/>
<path d="M15.1724 9.10339L12.4138 9.93103L13.7931 4.70898C13.7935 5.78516 14.0437 6.84656 14.5242 7.80969L15.1724 9.10339Z" fill="#35495E"/>
<path d="M13.7931 2.20703V9.10352L11.3103 10.207L10.2069 7.44836L9.82617 4.35596C9.93909 4.27051 10.046 4.17749 10.1462 4.07739C10.653 3.57776 10.9674 2.91553 11.0344 2.20703H13.7931Z" fill="#464F5D"/>
<path d="M0.551758 11.3103H2.20691V13.7931H0.551758V11.3103Z" fill="#2C2F38"/>
<path d="M1.93103 13.793V15.9999H0.275879C0.123535 15.9999 0 15.8763 0 15.724V14.0688C0 13.9165 0.123535 13.793 0.275879 13.793H1.93103Z" fill="#35495E"/>
<path d="M1.10339 13.793H5.24133V15.9999H1.10339V13.793Z" fill="#2C3E50"/>
<path d="M10.8966 13.793H15.4482V15.9999H10.8966V13.793Z" fill="#2C3E50"/>
<path d="M16 14.069V15.7241C16 15.8765 15.8765 16 15.7241 16H14.8966V12.6897L15.4482 13.7931H15.7241C15.8765 13.7931 16 13.9166 16 14.069Z" fill="#35495E"/>
<path d="M10.8966 9.10327H14.8966V11.3102H10.8966V9.10327Z" fill="#2C3E50"/>
<path d="M11.5862 6.62073V16H4.41382V6.62073L6.15723 4.34204C6.3833 4.51746 6.63428 4.65784 6.9021 4.75867C6.95728 5.20276 7.54395 5.58618 7.84473 5.91394C7.95508 6.03528 8.04492 5.81104 8.15503 5.6897C8.45605 5.36133 9.04272 5.20276 9.0979 4.75867C9.3584 4.65918 9.60352 4.52356 9.82617 4.35583L11.5862 6.62073Z" fill="#35495E"/>
<path d="M9.0979 4.75879C8.92432 5.40405 8.62012 6.00684 8.2041 6.52979C8.15186 6.58728 8.07776 6.62012 8 6.62012C7.92224 6.62012 7.84814 6.58728 7.7959 6.52979C7.37988 6.00684 7.07568 5.40405 6.9021 4.75879C7.60803 5.03467 8.39197 5.03467 9.0979 4.75879Z" fill="#2C2F38"/>
<path d="M10.2069 8H5.79309C5.64075 8 5.51721 7.87647 5.51721 7.72412C5.51721 7.57178 5.64075 7.44824 5.79309 7.44824H10.2069C10.3593 7.44824 10.4828 7.57178 10.4828 7.72412C10.4828 7.87647 10.3593 8 10.2069 8Z" fill="#7F8C8D"/>
<path d="M10.2069 9.37927H5.79309C5.64075 9.37927 5.51721 9.25586 5.51721 9.10339C5.51721 8.95105 5.64075 8.82764 5.79309 8.82764H10.2069C10.3593 8.82764 10.4828 8.95105 10.4828 9.10339C10.4828 9.25586 10.3593 9.37927 10.2069 9.37927Z" fill="black"/>
<path d="M10.2069 9.37927H5.79309C5.64075 9.37927 5.51721 9.25586 5.51721 9.10339C5.51721 8.95105 5.64075 8.82764 5.79309 8.82764H10.2069C10.3593 8.82764 10.4828 8.95105 10.4828 9.10339C10.4828 9.25586 10.3593 9.37927 10.2069 9.37927Z" fill="#7F8C8D"/>
<path d="M10.2069 10.7585H5.79309C5.64075 10.7585 5.51721 10.635 5.51721 10.4827C5.51721 10.3303 5.64075 10.2068 5.79309 10.2068H10.2069C10.3593 10.2068 10.4828 10.3303 10.4828 10.4827C10.4828 10.635 10.3593 10.7585 10.2069 10.7585Z" fill="#7F8C8D"/>
<path d="M10.2069 12.1379H5.79309C5.64075 12.1379 5.51721 12.0144 5.51721 11.8621C5.51721 11.7097 5.64075 11.5862 5.79309 11.5862H10.2069C10.3593 11.5862 10.4828 11.7097 10.4828 11.8621C10.4828 12.0144 10.3593 12.1379 10.2069 12.1379Z" fill="#7F8C8D"/>
<path d="M10.2069 13.5172H5.79309C5.64075 13.5172 5.51721 13.3937 5.51721 13.2413C5.51721 13.089 5.64075 12.9656 5.79309 12.9656H10.2069C10.3593 12.9656 10.4828 13.089 10.4828 13.2413C10.4828 13.3937 10.3593 13.5172 10.2069 13.5172Z" fill="#7F8C8D"/>
<path d="M10.2069 14.8965H5.79309C5.64075 14.8965 5.51721 14.7729 5.51721 14.6206C5.51721 14.4683 5.64075 14.3447 5.79309 14.3447H10.2069C10.3593 14.3447 10.4828 14.4683 10.4828 14.6206C10.4828 14.7729 10.3593 14.8965 10.2069 14.8965Z" fill="#7F8C8D"/>
<path d="M13.7931 11.3103H15.4482V13.7931H13.7931V11.3103Z" fill="#2C2F38"/>
</g>
<defs>
<clipPath id="clip0">
<rect width="16" height="16" fill="white"/>
</clipPath>
</defs>
</svg>
