<svg width="16" height="30" viewBox="0 0 16 30" fill="none" xmlns="http://www.w3.org/2000/svg">
<path d="M7.98794 7.30592C10.002 7.30592 11.6407 5.66736 11.6407 3.65318C11.6407 1.63885 10.002 0 7.98794 0C5.97391 0 4.33521 1.63885 4.33521 3.65318C4.33521 5.66736 5.97376 7.30592 7.98794 7.30592ZM7.98794 2.19921C8.78948 2.19921 9.44148 2.85149 9.44148 3.65318C9.44148 4.45457 8.78948 5.10671 7.98794 5.10671C7.18641 5.10671 6.53441 4.45472 6.53441 3.65318C6.53441 2.85149 7.18641 2.19921 7.98794 2.19921Z" fill="white"/>
<path d="M14.6424 18.1574H12.8645V11.9722C12.8645 11.1097 12.557 10.3177 12.0462 9.69986L15.4391 6.16295C15.8595 5.72472 15.8453 5.0286 15.4069 4.60825C14.9687 4.18777 14.2725 4.20228 13.852 4.64051L10.1454 8.50437C9.87221 8.43722 9.5869 8.40086 9.29323 8.40086H6.7033C4.73412 8.40086 3.13222 10.0029 3.13222 11.9721V15.8151L0.560753 18.4957C0.255796 18.8135 0.16988 19.283 0.342884 19.6882C0.515742 20.0935 0.913799 20.3565 1.35423 20.3565H14.6426C15.25 20.3565 15.7422 19.8642 15.7422 19.2569C15.7421 18.6498 15.2499 18.1574 14.6424 18.1574ZM10.6652 11.9722V18.1574H5.33128V16.6995L10.4969 11.3147C10.6041 11.5101 10.6652 11.7341 10.6652 11.9722ZM5.33128 11.9722C5.33128 11.2157 5.94662 10.6002 6.70315 10.6002H8.13498L5.33128 13.5228V11.9722Z" fill="white"/>
<path d="M3.32129 21.7148C2.71386 21.7148 2.22168 22.2072 2.22168 22.8144V28.9004C2.22168 29.5077 2.71386 30 3.32129 30C3.92871 30 4.42089 29.5077 4.42089 28.9004V22.8144C4.42089 22.2072 3.92871 21.7148 3.32129 21.7148Z" fill="white"/>
<path d="M12.6811 21.7148C12.0737 21.7148 11.5815 22.2072 11.5815 22.8144V28.9004C11.5815 29.5077 12.0737 30 12.6811 30C13.2886 30 13.7808 29.5077 13.7808 28.9004V22.8144C13.7808 22.2072 13.2886 21.7148 12.6811 21.7148Z" fill="white"/>
</svg>
