<svg width="76" height="76" viewBox="0 0 76 76" fill="none" xmlns="http://www.w3.org/2000/svg">
<path d="M6.90033 19.5314C8.52877 19.5892 10.1286 19.0242 11.3597 17.971L13.8702 20.4814C14.0228 20.6339 14.2227 20.7102 14.4227 20.7102C14.6227 20.7102 14.8225 20.6339 14.9752 20.4814C15.2803 20.1763 15.2803 19.6816 14.9752 19.3766L11.9205 16.3219C11.7683 16.1697 11.5581 16.0855 11.3452 16.0935C11.1302 16.0999 10.9272 16.1944 10.7842 16.3552C10.7321 16.4139 10.6771 16.4714 10.6217 16.5266C9.64236 17.506 8.34049 18.02 6.95518 17.9699C5.57205 17.9213 4.30783 17.3158 3.39533 16.2652C1.80268 14.4311 1.79737 11.6611 3.38299 9.8219C4.36721 8.68018 5.79221 8.05565 7.2969 8.10346C7.51268 8.11221 7.72221 8.02784 7.87502 7.87518C8.02783 7.72237 8.11049 7.51299 8.1033 7.29706C8.05377 5.79409 8.68002 4.36753 9.82174 3.38331C11.661 1.79752 14.4311 1.80299 16.265 3.39549C17.3158 4.30799 17.9211 5.57237 17.9697 6.95534C18.0185 8.34034 17.5058 9.64253 16.5261 10.6222C16.4713 10.6772 16.4138 10.7321 16.355 10.7844C16.1942 10.9274 16.0996 11.1303 16.0933 11.3453C16.0871 11.5603 16.1697 11.7685 16.3217 11.9207L18.7514 14.3503C19.0566 14.6553 19.5511 14.6553 19.8563 14.3503C20.1614 14.0452 20.1614 13.5505 19.8563 13.2455L17.9708 11.36C19.0242 10.1288 19.5886 8.53018 19.5313 6.90065C19.4674 5.07956 18.6713 3.41596 17.2896 2.21596C14.8735 0.117837 11.2244 0.110963 8.80143 2.20003C7.50065 3.32159 6.70861 4.88034 6.56268 6.56299C4.87987 6.70893 3.32112 7.50096 2.19955 8.8019C0.110647 11.2249 0.117522 14.8739 2.21565 17.29C3.41565 18.6714 5.07924 19.4675 6.90033 19.5314Z" fill="#FECA30"/>
<path d="M52.6308 49.2311C52.6469 49.2289 52.6627 49.2259 52.6788 49.2238C52.7554 49.2125 52.8318 49.2014 52.9085 49.1886C52.9221 49.187 52.9357 49.1853 52.9491 49.1828C53.0593 49.1642 53.1676 49.1441 53.2791 49.1211C53.3649 49.1034 53.4507 49.0853 53.5351 49.0661C53.5479 49.0633 53.5594 49.0606 53.5708 49.0578C53.6205 49.0463 53.671 49.0334 53.7219 49.0203C53.7299 49.0184 53.738 49.0167 53.746 49.0145H53.7461C53.7469 49.0142 53.7475 49.0142 53.7482 49.0139L53.9258 48.9678C55.6296 48.5039 57.1924 47.5958 58.4454 46.3408C58.7502 46.0356 58.7497 45.5409 58.4446 45.2361C58.1393 44.9313 57.6447 44.9316 57.3397 45.237C56.2791 46.2991 54.9568 47.0678 53.5246 47.4578L53.3579 47.5008C53.3097 47.5133 53.2616 47.5258 53.2136 47.5367C53.2133 47.5367 53.213 47.5367 53.2127 47.5367C53.2091 47.5377 53.205 47.5386 53.2011 47.5395C53.1982 47.5402 53.1954 47.5411 53.1924 47.5417C53.1166 47.5591 53.0394 47.575 52.9655 47.5906C52.8802 47.6077 52.7949 47.6236 52.7085 47.6386C52.6996 47.6399 52.6908 47.6408 52.6821 47.6422C52.5882 47.6581 52.4946 47.6724 52.4001 47.6855C52.3321 47.695 52.2657 47.7031 52.1979 47.7099C52.1891 47.7108 52.1704 47.713 52.1619 47.7138C52.1494 47.715 52.1369 47.7166 52.1244 47.718C52.0863 47.7213 52.0482 47.725 52.0097 47.7275C52.0052 47.7278 52.0015 47.7284 51.9969 47.7288L51.761 47.7461C51.7188 47.7497 51.6782 47.7519 51.636 47.7531C51.6275 47.7535 51.6194 47.7538 51.6108 47.7544C51.5693 47.7569 51.5279 47.758 51.4861 47.7592H51.4852L51.2347 47.7624C50.8069 47.7675 50.4629 48.1158 50.4629 48.5436V60.0389C50.4629 62.6183 48.3635 64.7169 45.7832 64.7169H35.6644C35.233 64.7169 34.8832 65.0666 34.8832 65.4981C34.8832 65.9297 35.233 66.2794 35.6644 66.2794H45.7832C49.2252 66.2794 52.0254 63.48 52.0254 60.0389V49.2935L52.1038 49.2874C52.1594 49.2841 52.2151 49.2788 52.2776 49.273C52.2877 49.272 52.3082 49.2699 52.3185 49.2688C52.3335 49.2672 52.3483 49.2656 52.3632 49.2639C52.448 49.255 52.5311 49.245 52.6157 49.2331L52.6308 49.2311Z" fill="#FECA30"/>
<path d="M73.7855 58.713C72.5855 57.3308 70.922 56.5341 69.1016 56.47C67.4705 56.4124 65.8731 56.9769 64.6417 58.0309L56.8423 50.2313C56.5372 49.9264 56.0425 49.9264 55.7373 50.2313C55.4323 50.5364 55.4323 51.0311 55.7373 51.3363L64.0805 59.6792C64.2314 59.83 64.4366 59.9117 64.6509 59.9078C64.8645 59.903 65.0666 59.8108 65.2103 59.653C65.2661 59.5916 65.322 59.533 65.3806 59.4744C66.36 58.495 67.6625 57.982 69.0464 58.0316C70.4289 58.0802 71.693 58.6861 72.6056 59.7378C74.1989 61.5713 74.2041 64.3405 72.6177 66.1792C71.6323 67.322 70.2059 67.9486 68.7045 67.8977C68.4884 67.8906 68.2786 67.973 68.1256 68.126C67.9727 68.2791 67.89 68.4884 67.8973 68.7049C67.9483 70.2063 67.3217 71.6327 66.1787 72.6181C64.34 74.2044 61.5711 74.1992 59.737 72.6056C58.6858 71.6931 58.08 70.4291 58.0313 69.0467C57.9823 67.6622 58.4948 66.3603 59.4742 65.381C59.5327 65.3224 59.5912 65.2666 59.6527 65.2106C59.8105 65.0669 59.9027 64.8649 59.9075 64.6513C59.9125 64.438 59.83 64.2316 59.6789 64.0806L53.9197 58.3214C53.6145 58.0166 53.1198 58.0166 52.8147 58.3214C52.5097 58.6266 52.5097 59.1213 52.8147 59.4264L58.0308 64.6422C56.9769 65.8736 56.4123 67.4724 56.4698 69.102C56.5339 70.9224 57.3308 72.586 58.7127 73.7856C59.9239 74.8381 61.4448 75.3645 62.9659 75.3645C64.4788 75.3645 65.9917 74.8436 67.1994 73.8014C68.5016 72.6789 69.2936 71.1205 69.4387 69.4389C71.1205 69.2936 72.6788 68.5017 73.8013 67.1999C75.8913 64.777 75.8845 61.1283 73.7855 58.713Z" fill="#FECA30"/>
<path d="M20.4804 59.9211L16.321 64.0803C16.1701 64.2314 16.0874 64.4373 16.0924 64.6506C16.0972 64.8642 16.1893 65.0662 16.3469 65.21C16.406 65.2641 16.4641 65.3177 16.5255 65.3806C17.5049 66.36 18.0174 67.6619 17.9688 69.0464C17.9202 70.4289 17.3147 71.693 16.2641 72.6053C14.4299 74.198 11.6599 74.2033 9.82084 72.6178C8.67912 71.6333 8.05287 70.2069 8.1024 68.7039C8.10959 68.4875 8.02678 68.2781 7.87381 68.1253C7.72084 67.9723 7.5124 67.8894 7.29522 67.8973C5.79475 67.9473 4.36756 67.3217 3.38194 66.1786C1.79553 64.3398 1.80084 61.5711 3.39459 59.7369C4.30709 58.6858 5.57131 58.0798 6.95428 58.0313C8.3399 57.983 9.64147 58.4948 10.6149 59.468C10.6718 59.5262 10.7288 59.5842 10.783 59.6453C10.926 59.8061 11.129 59.9011 11.344 59.9075C11.5602 59.9127 11.7672 59.8312 11.9196 59.6789L19.6391 51.9595C19.9443 51.6544 19.9443 51.1597 19.6391 50.8545C19.334 50.5497 18.8394 50.5497 18.5343 50.8545L11.359 58.0302C10.1277 56.9764 8.5285 56.4116 6.89928 56.4698C5.07819 56.5339 3.41459 57.3308 2.21506 58.7127C0.115686 61.1284 0.108967 64.7769 2.19897 67.1992C3.32162 68.5014 4.88022 69.2936 6.56194 69.4386C6.70803 71.1214 7.50006 72.6798 8.80084 73.8011C10.009 74.843 11.5221 75.3633 13.0351 75.3633C14.5563 75.3633 16.0776 74.8372 17.289 73.7852C18.6705 72.5852 19.4666 70.9217 19.5305 69.1012C19.5879 67.4695 19.0218 65.8686 17.9697 64.6414L21.5854 61.0256C21.8905 60.7208 21.8905 60.2261 21.5854 59.9209C21.2801 59.6159 20.7855 59.6159 20.4804 59.9211Z" fill="#FECA30"/>
<path d="M56.8424 14.7564L59.6789 11.9197C59.8313 11.7675 59.9139 11.5592 59.9075 11.3442C59.9011 11.1291 59.8063 10.9261 59.6454 10.7831C59.5844 10.7291 59.5263 10.672 59.4743 10.6209C58.4947 9.64141 57.9822 8.33938 58.0313 6.95438C58.08 5.57141 58.6858 4.30719 59.7375 3.39438C61.571 1.80109 64.34 1.79578 66.1789 3.38219C67.3218 4.36766 67.9483 5.79391 67.8974 7.29531C67.89 7.51141 67.9725 7.72094 68.1255 7.87391C68.2785 8.02688 68.4888 8.11094 68.7039 8.1025C70.21 8.05359 71.6335 8.67922 72.6177 9.82094C74.2033 11.6602 74.198 14.4302 72.6057 16.2642C71.6929 17.315 70.4289 17.9203 69.0464 17.9689C67.6624 18.018 66.36 17.505 65.3743 16.5192C65.3179 16.4641 65.2641 16.4059 65.21 16.3469C65.0663 16.1892 64.8643 16.0972 64.6508 16.0923C64.4377 16.087 64.2313 16.17 64.0805 16.3209L60.7133 19.6881C60.4082 19.9933 60.4082 20.488 60.7133 20.793C60.866 20.9455 61.0658 21.0217 61.2657 21.0217C61.4657 21.0217 61.6657 20.9455 61.8182 20.793L64.6418 17.9692C65.8732 19.0231 67.4727 19.5895 69.1013 19.5305C70.9216 19.4666 72.5852 18.6705 73.7853 17.2887C75.8833 14.8727 75.89 11.2236 73.8011 8.80063C72.6799 7.5 71.1214 6.70781 69.4386 6.56188C69.2936 4.88016 68.5014 3.32141 67.1996 2.19906C64.7771 0.108751 61.1285 0.115626 58.7132 2.21469C57.3308 3.41453 56.5343 5.07813 56.47 6.89922C56.4127 8.52672 56.975 10.1233 58.0307 11.3586L55.7375 13.6514C55.4325 13.9566 55.4325 14.4512 55.7375 14.7562C56.0425 15.0614 56.5372 15.0616 56.8424 14.7564Z" fill="#FECA30"/>
<path d="M25.1502 23.3523C25.2794 23.7641 25.7175 23.9931 26.1294 23.8641C26.8885 23.6261 27.716 23.5125 28.5852 23.5234C31.0676 23.5556 33.1301 25.2447 33.4891 27.5392C34.2057 32.1344 27.4088 34.1864 27.343 34.2058C24.2766 35.0905 22.4193 34.3605 21.6654 31.9736C21.2457 30.6489 21.3107 29.1784 21.8482 27.8328C22.0082 27.4322 21.8132 26.9775 21.4125 26.8175C21.0118 26.6573 20.5572 26.8523 20.3972 27.2531C19.726 28.9333 19.6474 30.7773 20.1757 32.4448C20.6508 33.9489 21.8925 36.1275 25.0977 36.1272C25.8711 36.1272 26.7594 36.0002 27.7783 35.7064C27.86 35.6825 29.8029 35.1077 31.6638 33.8352C34.2583 32.0611 35.4235 29.8006 35.0332 27.298C34.5558 24.2477 31.8527 22.0031 28.6065 21.9609C27.5725 21.9467 26.5797 22.0852 25.6622 22.373C25.2502 22.5022 25.0211 22.9406 25.1502 23.3523Z" fill="#FECA30"/>
<path d="M54.2343 32.9542C54.6454 33.0844 55.0846 32.8567 55.215 32.4453C56.0971 29.6609 55.2964 26.5914 53.1257 24.435C51.4629 22.7822 49.2718 21.927 46.7852 21.9611C43.5382 22.0033 40.8352 24.2477 40.3575 27.2984C39.9675 29.8008 41.1325 32.0611 43.7269 33.8351C45.5879 35.1076 47.5307 35.6825 47.6124 35.7064C47.6854 35.7276 47.7589 35.7378 47.8314 35.7378C48.1696 35.7378 48.4814 35.5162 48.581 35.175C48.7018 34.7608 48.4639 34.327 48.0497 34.2062C47.9811 34.1862 41.1827 32.1483 41.9013 27.5395C42.2605 25.2445 44.3229 23.5555 46.806 23.5233C48.8899 23.4922 50.6468 24.1741 52.0241 25.5433C53.778 27.2855 54.4297 29.7494 53.7254 31.9734C53.5954 32.3848 53.823 32.8239 54.2343 32.9542Z" fill="#FECA30"/>
<path d="M37.6953 35.2052C37.0865 35.2052 36.5048 35.4669 36.0984 35.9237C35.3072 36.8153 34.245 38.2548 33.6784 40.0494C33.4353 40.8197 33.5131 41.6705 33.892 42.3834C34.2681 43.0908 34.8947 43.605 35.6561 43.8306C36.2875 44.018 36.9736 44.113 37.6953 44.113C38.3815 44.113 39.039 44.0262 39.6509 43.8555C40.4454 43.6317 41.0987 43.1097 41.4901 42.3848C41.8808 41.6619 41.9595 40.832 41.712 40.0478C41.1437 38.2497 40.082 36.8123 39.2915 35.9234C38.8858 35.4669 38.3039 35.2052 37.6953 35.2052ZM40.1156 41.6417C39.9267 41.9911 39.6112 42.2433 39.2287 42.3509C38.7554 42.4831 38.2394 42.5501 37.6953 42.5501C37.124 42.5501 36.5875 42.4769 36.1001 42.3322C35.7437 42.2266 35.4497 41.9842 35.2719 41.6498C35.0858 41.2995 35.049 40.8981 35.1686 40.5195C35.6523 38.9878 36.5769 37.7387 37.2667 36.9614C37.4167 36.7928 37.5997 36.7677 37.6954 36.7677C37.7912 36.7677 37.9742 36.7928 38.1242 36.9614C38.8136 37.7366 39.737 38.983 40.2223 40.518C40.3411 40.8951 40.3033 41.2941 40.1156 41.6417Z" fill="#FECA30"/>
<path d="M28.6639 64.6223C26.4992 64.1795 24.9281 62.252 24.9281 60.0392V48.5439C24.9281 48.1123 24.5783 47.7626 24.1469 47.7626C23.9255 47.7626 23.703 47.7541 23.4761 47.7364C23.4142 47.7322 23.3508 47.7264 23.2889 47.7208C23.248 47.7169 23.2071 47.7116 23.1672 47.7064C23.156 47.7048 23.1447 47.7036 23.1335 47.7028C23.0939 47.6995 23.0555 47.6948 23.0161 47.6894C23.0125 47.6887 23.0097 47.6884 23.0061 47.6881C22.9074 47.675 22.8088 47.6594 22.71 47.6436L22.6594 47.6347C22.6269 47.6289 22.5947 47.6237 22.5627 47.617C22.5536 47.6148 22.5444 47.6134 22.5353 47.6116C22.4644 47.5994 22.395 47.5841 22.325 47.5692C21.7755 47.4511 21.248 47.2791 20.7453 47.0617V44.8831H23.4235C23.8549 44.8831 24.2047 44.5334 24.2047 44.1019V40.3519C24.2047 39.9203 23.8549 39.5706 23.4235 39.5706C22.9921 39.5706 22.6422 39.9203 22.6422 40.3519V43.3206H19.9641C19.5327 43.3206 19.1828 43.6703 19.1828 44.1019V46.1822C16.9544 44.5992 15.525 41.993 15.525 39.1394V32.8437C15.525 29.3809 16.3008 26.0641 17.83 22.9869C17.8786 22.8898 17.9286 22.7927 17.9788 22.6956C17.9802 22.6927 17.9817 22.6898 17.9831 22.687C17.9831 22.6869 17.9833 22.6869 17.9833 22.6867C18.008 22.6373 18.0339 22.5869 18.0611 22.5372L18.0806 22.5001C18.1406 22.3875 18.2008 22.2747 18.2591 22.1678C18.326 22.0478 18.3927 21.9277 18.4611 21.8094C18.4613 21.8089 18.4616 21.8086 18.4617 21.8081C18.4649 21.8028 18.4681 21.7972 18.4713 21.7916C18.4716 21.7911 18.4719 21.7908 18.4722 21.7903C18.5458 21.6627 18.6192 21.5364 18.696 21.4103C18.6961 21.41 18.6961 21.4098 18.6963 21.4095L18.7321 21.35C18.7458 21.3275 18.7599 21.3052 18.7738 21.2827C18.8221 21.2037 18.8703 21.125 18.9196 21.047C18.9281 21.0347 18.9361 21.0217 18.9441 21.0089C18.9447 21.008 18.9455 21.007 18.9463 21.0059C19.0099 20.9044 19.0752 20.8031 19.1413 20.7027L19.2406 20.5528C19.2817 20.4909 19.3228 20.4294 19.3556 20.3808C19.3935 20.3277 19.4296 20.2744 19.4597 20.2298C19.6149 20.0073 19.7727 19.7883 19.9297 19.5778C19.9805 19.5097 20.0325 19.4417 20.0911 19.3652C20.1972 19.2262 20.3063 19.0872 20.4267 18.9389C20.4724 18.8805 20.5194 18.8219 20.5647 18.767C20.8264 18.4522 21.0667 18.1752 21.2975 17.9222L21.45 17.7559C21.5421 17.6566 21.6369 17.5572 21.733 17.4566C21.8271 17.3595 21.9225 17.2625 22.018 17.1669C22.1235 17.0614 22.2303 16.9575 22.338 16.8544C23.4246 15.8106 24.6205 14.875 25.8927 14.0734C26.2577 13.8434 26.3672 13.3609 26.1372 12.9959C25.9071 12.6309 25.4249 12.5214 25.0597 12.7514C23.6981 13.6094 22.4183 14.6106 21.2563 15.7269C21.1413 15.837 21.0264 15.9486 20.913 16.062C20.8117 16.1633 20.7103 16.2664 20.6002 16.3803C20.5038 16.4812 20.4061 16.5837 20.3092 16.6884C20.3089 16.6886 20.3086 16.6887 20.3085 16.6891C20.3067 16.6908 20.3052 16.6925 20.3036 16.6944C20.3027 16.6955 20.3017 16.6964 20.3008 16.6975L20.1446 16.8678C19.896 17.1403 19.6403 17.4348 19.3614 17.7705C19.3053 17.8384 19.2492 17.908 19.2047 17.9655C19.0841 18.1139 18.965 18.2655 18.8438 18.4242C18.7874 18.4978 18.7311 18.5714 18.6769 18.6442C18.5138 18.8627 18.3492 19.0909 18.1822 19.3305C18.1819 19.3309 18.1814 19.3312 18.1811 19.3317C18.1786 19.3353 18.1763 19.3389 18.1736 19.3425C18.173 19.3434 18.1724 19.3444 18.1716 19.3455C18.1703 19.3473 18.1688 19.3495 18.1675 19.3514C18.135 19.3978 18.103 19.4444 18.0716 19.4908C18.0716 19.4909 18.0716 19.4909 18.0714 19.4911C18.0272 19.5559 17.9836 19.6212 17.94 19.6869L17.8613 19.8058C17.8603 19.8073 17.8588 19.8084 17.8578 19.81C17.8506 19.8209 17.8438 19.8322 17.8366 19.843L17.8231 19.8634C17.7594 19.9616 17.6952 20.0606 17.6328 20.1597C17.6266 20.1686 17.6208 20.1775 17.615 20.1867C17.6147 20.1873 17.6141 20.1878 17.6138 20.1884C17.6125 20.1905 17.6113 20.1923 17.61 20.1944C17.61 20.1945 17.6099 20.1947 17.6097 20.195L17.6064 20.2001C17.5377 20.3091 17.47 20.4194 17.3991 20.5353L17.3602 20.6C17.36 20.6002 17.36 20.6005 17.3599 20.6006L17.3567 20.6056C17.2767 20.74 17.1967 20.8745 17.1183 21.0105C17.1183 21.0106 17.1181 21.0109 17.118 21.0111C17.1147 21.0166 17.1114 21.0222 17.1081 21.028C17.108 21.0283 17.1077 21.0286 17.1075 21.0289C17.0353 21.1542 16.9647 21.2809 16.8941 21.4078C16.8941 21.4078 16.8941 21.4078 16.8941 21.408C16.893 21.4098 16.8921 21.4116 16.891 21.4136C16.8269 21.5309 16.7642 21.6484 16.7017 21.7659L16.6652 21.835C16.6385 21.8852 16.6117 21.9358 16.5864 21.9872C16.5346 22.0877 16.4828 22.1883 16.4317 22.2903C14.7933 25.5872 13.9625 29.1381 13.9625 32.8442V39.1397C13.9625 43.0484 16.2327 46.5648 19.6136 48.258C19.6339 48.2683 19.6536 48.2794 19.675 48.2875C20.4022 48.6458 21.1791 48.9214 21.9964 49.0969C22.0819 49.1155 22.1675 49.1337 22.2546 49.1491C22.3003 49.1586 22.3463 49.1664 22.3927 49.1747L22.4427 49.1836C22.4478 49.1845 22.4531 49.1855 22.4585 49.1861C22.5733 49.2044 22.6883 49.2226 22.7947 49.2364C22.8583 49.2456 22.92 49.2528 22.9833 49.2587C23.0353 49.2655 23.0889 49.2719 23.1449 49.277C23.2199 49.2837 23.295 49.2908 23.3624 49.295C23.3635 49.295 23.3647 49.2953 23.3656 49.2953V60.0397C23.3656 62.9914 25.4622 65.5628 28.3508 66.1536C28.4036 66.1642 28.4563 66.1695 28.5081 66.1695C28.8716 66.1695 29.1971 65.9147 29.2727 65.5448C29.3592 65.1216 29.0867 64.7087 28.6639 64.6223Z" fill="#FECA30"/>
<path d="M33.6055 11.0498C34.9451 10.8002 36.321 10.6734 37.6954 10.6734C40.1798 10.6734 42.6015 11.0811 44.8862 11.862L42.4326 13.422C42.2416 13.5433 42.1129 13.7414 42.0791 13.965C42.0454 14.1886 42.1104 14.4158 42.2569 14.588L43.4973 16.0434L39.6837 17.9934C39.2996 18.1898 39.1473 18.6606 39.3438 19.0447C39.4819 19.315 39.7558 19.4705 40.0399 19.4705C40.1596 19.4705 40.2812 19.4428 40.3949 19.3847L45.0883 16.9847C45.301 16.8759 45.4524 16.6758 45.4988 16.4414C45.5455 16.207 45.4824 15.9642 45.3273 15.7823L44.029 14.2584L46.6888 12.5673C49.1401 13.6558 51.3963 15.1969 53.3527 17.1481C53.4649 17.2589 53.5757 17.3727 53.6882 17.49C53.793 17.5977 53.8947 17.7069 53.9968 17.8161C54.0312 17.8548 54.0666 17.8934 54.101 17.9308C54.1015 17.9314 54.1054 17.9356 54.1085 17.9387C54.1827 18.0203 54.2565 18.1033 54.3315 18.1887C54.4315 18.302 54.5287 18.4141 54.6258 18.5286C54.6321 18.5367 54.6387 18.5447 54.6452 18.5525C54.7385 18.6623 54.8304 18.7737 54.9219 18.8864C54.9221 18.8864 54.9222 18.8866 54.9222 18.8867L54.9744 18.9514C55.066 19.0637 55.1546 19.1775 55.2449 19.2956C55.2451 19.2958 55.2452 19.2959 55.2454 19.2961C55.2457 19.2966 55.246 19.2972 55.2465 19.2977C55.3805 19.4703 55.5121 19.6466 55.6412 19.8242C55.6676 19.8603 55.6937 19.8969 55.7199 19.9333C55.8444 20.1067 55.9674 20.2814 56.0855 20.4569C56.1758 20.5916 56.2646 20.7262 56.3533 20.8625C56.3537 20.863 56.3541 20.8634 56.3544 20.8639C56.3615 20.8752 56.3688 20.8864 56.3758 20.897C56.4537 21.0198 56.5299 21.1427 56.6069 21.2678C56.7652 21.5244 56.928 21.8028 57.0902 22.0942C57.1668 22.2327 57.2421 22.3709 57.3157 22.5109C57.3165 22.5122 57.3172 22.5134 57.3179 22.5147C57.318 22.5152 57.3182 22.5156 57.3183 22.5159C57.3913 22.6556 57.4643 22.7955 57.5341 22.9352L57.5622 22.9912C57.6268 23.1203 57.6896 23.2508 57.7516 23.3822C59.1546 26.3484 59.8658 29.5317 59.8658 32.8436V39.1391C59.8658 39.5077 59.8424 39.8791 59.796 40.2428C59.7413 40.6709 60.0441 41.0622 60.4721 41.1169C60.5057 41.1211 60.539 41.123 60.5719 41.123C60.9593 41.123 61.2957 40.8348 61.346 40.4406C61.4007 40.0116 61.4283 39.5736 61.4283 39.1391V32.8437C61.4283 29.2991 60.6666 25.8911 59.1647 22.7155C59.098 22.5742 59.0297 22.4327 58.9597 22.2928L58.9332 22.2394C58.9326 22.2386 58.9322 22.2377 58.9316 22.2367C58.9316 22.2367 58.9316 22.2366 58.9316 22.2364C58.9051 22.1831 58.8766 22.1297 58.8493 22.0764C58.8013 21.9819 58.7541 21.8867 58.704 21.7934C58.7022 21.7905 58.7008 21.7875 58.6993 21.7847C58.6991 21.7845 58.6991 21.7842 58.6991 21.7841C58.6197 21.6339 58.5393 21.4853 58.4569 21.337C58.4568 21.3369 58.4568 21.3367 58.4566 21.3366C58.4565 21.3362 58.4563 21.3359 58.4562 21.3355C58.4519 21.328 58.4476 21.3209 58.4435 21.3133C58.2816 21.0219 58.1116 20.7308 57.9412 20.4544C57.9404 20.4531 57.9394 20.4517 57.9387 20.4505C57.9382 20.4498 57.9379 20.4491 57.9374 20.4484C57.8558 20.3155 57.7741 20.1844 57.691 20.0531C57.6833 20.0411 57.684 20.042 57.6758 20.0305L57.674 20.0316C57.674 20.0314 57.6738 20.0314 57.6737 20.0312C57.6704 20.0258 57.6685 20.0198 57.6649 20.0145L57.6655 20.0142C57.6646 20.0127 57.6633 20.0112 57.6624 20.0098C57.6624 20.0097 57.6622 20.0094 57.6621 20.0092C57.6066 19.9239 57.5496 19.8387 57.4933 19.7536C57.4562 19.6978 57.4199 19.6417 57.3822 19.5856C57.3819 19.5852 57.3816 19.5845 57.3812 19.5839H57.381C57.2516 19.3927 57.1204 19.2053 56.9887 19.0217C56.9607 18.983 56.9333 18.9445 56.9052 18.9059C56.7652 18.7131 56.6247 18.5253 56.4854 18.3459C56.4846 18.3448 56.4837 18.3439 56.483 18.3428C56.4827 18.3425 56.4824 18.3422 56.4823 18.3419C56.4027 18.2381 56.3227 18.1359 56.2446 18.0391C56.2258 18.0155 56.2079 17.9928 56.1887 17.9687H56.1885L56.1377 17.9055C56.1365 17.9039 56.1351 17.9023 56.134 17.9009C56.134 17.9009 56.134 17.9009 56.134 17.9008C56.1257 17.8906 56.1172 17.8809 56.109 17.8708C56.0229 17.7641 55.9354 17.6581 55.8468 17.5541C55.8399 17.5453 55.833 17.5366 55.8257 17.5281C55.719 17.402 55.6124 17.2792 55.5046 17.1572C55.5041 17.1567 55.5037 17.1562 55.5032 17.1556C55.5024 17.1547 55.5015 17.1537 55.5008 17.1528C55.4283 17.0702 55.3549 16.987 55.2758 16.9008C55.2712 16.8956 55.2665 16.8903 55.2619 16.8852C55.2615 16.8847 55.261 16.8845 55.2605 16.8841C55.2571 16.8803 55.254 16.8767 55.2504 16.8728C55.2205 16.8402 55.1893 16.8064 55.1594 16.7727C55.1551 16.7677 55.1505 16.7628 55.146 16.7578C55.0343 16.6381 54.9229 16.5186 54.8115 16.4041C54.6924 16.2803 54.5719 16.1566 54.4527 16.0389C49.9732 11.5712 44.0218 9.11078 37.6948 9.11078C36.2246 9.11078 34.7523 9.2464 33.3185 9.51359C32.8944 9.59265 32.6146 10.0006 32.6937 10.4248C32.7727 10.8491 33.1819 11.1294 33.6055 11.0498Z" fill="#FECA30"/>
<path d="M36.914 54.8548V56.525C36.914 56.9566 37.2639 57.3062 37.6953 57.3062C38.1269 57.3062 38.4765 56.9566 38.4765 56.525V54.8548H40.7467V56.525C40.7467 56.9566 41.0965 57.3062 41.528 57.3062C41.9595 57.3062 42.3092 56.9566 42.3092 56.525V54.8548H44.5797V56.525C44.5797 56.9566 44.9294 57.3062 45.3609 57.3062C45.7923 57.3062 46.1422 56.9566 46.1422 56.525V54.8548H47.6186C48.0498 54.8548 48.3998 54.5048 48.3998 54.0736C48.3998 53.6423 48.0498 53.2923 47.6186 53.2923H46.1422V51.6236C46.1422 51.192 45.7923 50.8423 45.3609 50.8423C44.9294 50.8423 44.5797 51.192 44.5797 51.6236V53.2923H42.3092V51.6236C42.3092 51.192 41.9595 50.8423 41.528 50.8423C41.0965 50.8423 40.7467 51.192 40.7467 51.6236V53.2923H38.4765V51.6236C38.4765 51.192 38.1269 50.8423 37.6953 50.8423C37.2639 50.8423 36.914 51.192 36.914 51.6236V53.2923H34.6437V51.6236C34.6437 51.192 34.2939 50.8423 33.8625 50.8423C33.4311 50.8423 33.0812 51.192 33.0812 51.6236V53.2923H30.8109V51.6236C30.8109 51.192 30.4611 50.8423 30.0297 50.8423C29.5983 50.8423 29.2484 51.192 29.2484 51.6236V53.2923H27.7719C27.3406 53.2923 26.9906 53.6423 26.9906 54.0736C26.9906 54.5048 27.3406 54.8548 27.7719 54.8548H29.2484V56.525C29.2484 56.9566 29.5983 57.3062 30.0297 57.3062C30.4611 57.3062 30.8109 56.9566 30.8109 56.525V54.8548H33.0812V56.525C33.0812 56.9566 33.4311 57.3062 33.8625 57.3062C34.2939 57.3062 34.6437 56.9566 34.6437 56.525V54.8548H36.914Z" fill="#FECA30"/>
</svg>
