<svg width="16" height="16" viewBox="0 0 16 16" fill="none" xmlns="http://www.w3.org/2000/svg">
<path d="M5.26194 9.19629L3.22266 11.2356C3.09342 11.3648 3.09342 11.5744 3.22266 11.7036L5.15505 13.636C5.48525 13.9662 6.02063 13.9662 6.35083 13.636L8.02624 11.9606L5.26194 9.19629Z" fill="#FAC574"/>
<path d="M14.4643 8.72943C16.2413 6.94789 16.2401 4.06319 14.4602 2.28337C12.6804 0.503497 9.7956 0.502275 8.01407 2.27943C6.23256 0.502275 3.34776 0.503497 1.56789 2.28334C-0.211926 4.06319 -0.213179 6.94789 1.56388 8.72943L7.79263 14.9584C7.91492 15.0807 8.11321 15.0807 8.2355 14.9584L14.4643 8.72943Z" fill="#FB4A59"/>
<path d="M8.42307 10.9021L6.07969 13.2455L3.31543 10.4812L5.65881 8.13786C6.21404 7.58263 7.11437 7.58263 7.66961 8.13786L8.42307 8.89132C8.9783 9.44656 8.9783 10.3469 8.42307 10.9021Z" fill="#F82F40"/>
<path d="M14.4642 8.72964L8.23548 14.9587C8.11335 15.0808 7.9148 15.0808 7.79267 14.9587L7.1676 14.3336L13.2476 8.25367C15.0244 6.4721 15.0232 3.58728 13.2435 1.80759C12.9473 1.51134 12.6203 1.26425 12.2727 1.06665C13.0744 1.25298 13.8351 1.65852 14.4601 2.28359C16.2401 4.06328 16.2414 6.94811 14.4642 8.72964Z" fill="#F82F40"/>
<path d="M7.82353 10.3026L5.05652 13.0696C4.92728 13.1989 4.71771 13.1989 4.58847 13.0696L2.65609 11.1372C2.3259 10.807 2.3259 10.2717 2.65609 9.94146L5.05925 7.5383C5.61454 6.983 6.51484 6.983 7.07014 7.5383L7.82353 8.2917C8.37883 8.84699 8.37883 9.7473 7.82353 10.3026Z" fill="#FCDDB3"/>
<path d="M5.78666 10.9354L4.12046 12.6016L2.76031 11.2414L4.42651 9.5752C4.55576 9.44596 4.76532 9.44596 4.89456 9.5752L5.78666 10.4673C5.9159 10.5965 5.9159 10.8061 5.78666 10.9354Z" fill="#FDF6ED"/>
<path d="M7.82372 10.3026L7.1451 10.9812C7.6972 10.4253 7.69626 9.52783 7.14197 8.97322L6.3885 8.22007C5.83327 7.66452 4.93293 7.66452 4.37738 8.22007L5.05913 7.53801C5.61468 6.98277 6.51502 6.98277 7.07025 7.53801L7.82372 8.29147C8.37895 8.84701 8.37895 9.74704 7.82372 10.3026Z" fill="#FBCC85"/>
<path d="M15.7875 5.8695C15.6591 5.85278 15.541 5.94334 15.5242 6.07199C15.4001 7.02221 14.9761 7.88381 14.2982 8.56343L8.06942 14.7923C8.03885 14.8229 7.98919 14.8229 7.95869 14.7923L5.81222 12.6458L7.98959 10.4684C8.63558 9.82245 8.63558 8.7714 7.98959 8.12541L7.23619 7.37201C6.92325 7.05907 6.50722 6.88674 6.06466 6.88674C5.6221 6.88674 5.20607 7.05907 4.89313 7.37201L2.71582 9.54932L1.73015 8.56361C0.047638 6.8769 0.0493605 4.13412 1.73397 2.44951C2.38481 1.79867 3.20811 1.379 4.11487 1.23592C4.24301 1.21569 4.33048 1.09544 4.31025 0.967324C4.29002 0.839179 4.16967 0.751745 4.04165 0.771944C3.03615 0.930622 2.12332 1.39585 1.4018 2.11737C-0.465725 3.9849 -0.467635 7.0255 1.3978 8.89559L2.39123 9.88906C2.07206 10.3121 2.10482 10.918 2.48997 11.3031L2.8813 11.6944C2.97302 11.7862 3.12174 11.7862 3.21343 11.6944C3.30516 11.6027 3.30516 11.454 3.21343 11.3623L3.0924 11.2413L4.59256 9.74113C4.61705 9.71664 4.64561 9.71297 4.66048 9.71297C4.67533 9.71297 4.70392 9.71664 4.72841 9.74113L5.62048 10.6332C5.65796 10.6706 5.65796 10.7317 5.62048 10.7691L4.12035 12.2692L4.00896 12.1578C3.91723 12.0661 3.76851 12.0661 3.67682 12.1578C3.58509 12.2496 3.58509 12.3983 3.67682 12.49L4.9889 13.8021C5.19953 14.0127 5.4762 14.118 5.75285 14.118C5.98208 14.118 6.21119 14.0455 6.40288 13.9009L7.62649 15.1245C7.73334 15.2314 7.87366 15.2848 8.01402 15.2848C8.15438 15.2848 8.29471 15.2314 8.40156 15.1245L14.6305 8.89538C15.3823 8.14173 15.8524 7.18646 15.99 6.13283C16.0068 6.00419 15.9162 5.88628 15.7875 5.8695ZM5.95271 11.1012C6.1733 10.8806 6.1733 10.5216 5.95271 10.301L5.06064 9.40893C4.95376 9.30204 4.81168 9.2432 4.66055 9.2432C4.50938 9.2432 4.3673 9.30208 4.26045 9.40893L2.76521 10.9042C2.68651 10.7992 2.64333 10.6727 2.64333 10.5392C2.64333 10.3761 2.70684 10.2227 2.82217 10.1073L5.22533 7.70418C5.44952 7.47999 5.74762 7.35651 6.06469 7.35651C6.38177 7.35651 6.67987 7.47999 6.90406 7.70418L7.65746 8.45758C8.12028 8.9204 8.12028 9.67348 7.65746 10.1363L4.89044 12.9033C4.86595 12.9278 4.83739 12.9314 4.82251 12.9314C4.80767 12.9314 4.77908 12.9278 4.75459 12.9033L4.45261 12.6013L5.95271 11.1012ZM5.3211 13.4699L5.14851 13.2973C5.17457 13.2788 5.19953 13.2585 5.22258 13.2355L5.48006 12.978L6.06451 13.5625C5.83023 13.7016 5.52243 13.6712 5.3211 13.4699Z" fill="black"/>
<path d="M5.18232 1.20019C6.1866 1.29041 7.13338 1.73282 7.84817 2.44585C7.93986 2.53732 8.08824 2.53732 8.17993 2.44585C9.86668 0.763272 12.6095 0.7649 14.2942 2.44958C14.9901 3.14551 15.418 4.029 15.5318 5.00455C15.5457 5.12418 15.6472 5.21227 15.7648 5.21227C15.7739 5.21227 15.783 5.21174 15.7923 5.21068C15.9211 5.19564 16.0134 5.07902 15.9984 4.95019C15.8723 3.86847 15.3978 2.88891 14.6263 2.11744C12.813 0.304117 9.8937 0.249752 8.01398 1.95553C7.24377 1.25759 6.26179 0.825559 5.22435 0.732363C5.09533 0.720807 4.98102 0.81607 4.9694 0.94528C4.95779 1.07446 5.05311 1.18857 5.18232 1.20019Z" fill="black"/>
</svg>
