<svg width="30" height="30" viewBox="0 0 30 30" fill="none" xmlns="http://www.w3.org/2000/svg">
<path d="M25.8742 8.03474C23.5352 6.32228 20.6226 5.2998 18.0831 5.2998C15.5271 5.2998 13.6381 6.33037 12.4686 8.3627C11.5523 9.9551 11.1067 12.1262 11.1067 15.0001C11.1067 17.8738 11.5522 20.0449 12.4686 21.6375C13.6383 23.6698 15.5273 24.7004 18.0831 24.7004C20.6226 24.7004 23.5352 23.6779 25.8742 21.9654C28.5348 20.0174 30.0001 17.5437 30.0001 15.0002C30.0001 12.4563 28.5348 9.98277 25.8742 8.03474ZM24.6168 20.2476C22.6591 21.681 20.1555 22.5714 18.0831 22.5714C15.8261 22.5714 13.2354 21.7108 13.2354 14.9999C13.2354 8.28905 15.8261 7.42835 18.0831 7.42835C20.1556 7.42835 22.6591 8.31871 24.6168 9.75216C26.6851 11.2665 27.8715 13.1792 27.8715 14.9999C27.8714 16.8205 26.6851 18.7332 24.6168 20.2476Z" fill="white"/>
<path d="M9.0902 6.37819L1.06434 6.37805C0.476542 6.37805 0 6.85459 0 7.44239C0 8.0302 0.476542 8.50674 1.06434 8.50674L9.0902 8.50688C9.678 8.50688 10.1545 8.03034 10.1545 7.44254C10.1545 6.85474 9.678 6.37819 9.0902 6.37819Z" fill="white"/>
<path d="M9.0902 10.26H1.06434C0.476542 10.26 0 10.7366 0 11.3244C0 11.9122 0.476542 12.3887 1.06434 12.3887H9.0902C9.678 12.3887 10.1545 11.9122 10.1545 11.3244C10.1545 10.7366 9.678 10.26 9.0902 10.26Z" fill="white"/>
<path d="M9.0902 14.142H1.06434C0.476542 14.142 0 14.6185 0 15.2063C0 15.7941 0.476542 16.2707 1.06434 16.2707H9.0902C9.678 16.2707 10.1545 15.7941 10.1545 15.2063C10.1545 14.6185 9.678 14.142 9.0902 14.142Z" fill="white"/>
<path d="M9.0902 18.0239H1.06434C0.476542 18.0239 0 18.5005 0 19.0883C0 19.6761 0.476542 20.1526 1.06434 20.1526H9.0902C9.678 20.1526 10.1545 19.6761 10.1545 19.0883C10.1545 18.5005 9.678 18.0239 9.0902 18.0239Z" fill="white"/>
<path d="M9.0902 21.9058H1.06434C0.476542 21.9058 0 22.3823 0 22.9701C0 23.5579 0.476542 24.0344 1.06434 24.0344H9.0902C9.678 24.0344 10.1545 23.5579 10.1545 22.9701C10.1545 22.3823 9.678 21.9058 9.0902 21.9058Z" fill="white"/>
</svg>
