<svg width="18" height="21" viewBox="0 0 18 21" fill="none" xmlns="http://www.w3.org/2000/svg">
<path fill-rule="evenodd" clip-rule="evenodd" d="M8.7121 20.9093C8.82936 20.9701 8.96047 21.001 9.09158 21C9.22269 20.9989 9.35274 20.967 9.47106 20.9052L13.2488 18.9026C14.3201 18.3363 15.159 17.7031 15.8135 16.9658C17.2366 15.3596 18.0136 13.3096 17.9998 11.1958L17.955 4.22308C17.9508 3.41997 17.4188 2.70334 16.6322 2.44284L9.60431 0.104542C9.18112 -0.0375472 8.71743 -0.0344583 8.30171 0.11175L1.30049 2.53345C0.518081 2.80424 -0.00423792 3.52602 2.59114e-05 4.33016L0.0447961 11.2977C0.0586536 13.4146 0.862386 15.4554 2.30889 17.0451C2.96978 17.772 3.81616 18.396 4.89917 18.953L8.7121 20.9093ZM7.71196 12.7144C7.86972 12.8647 8.07438 12.9388 8.27905 12.9368C8.48371 12.9357 8.68731 12.8595 8.84294 12.7071L12.9714 8.67098C13.2816 8.36724 13.2784 7.87919 12.965 7.57957C12.6505 7.27994 12.1442 7.282 11.834 7.58575L8.26732 11.0721L6.80696 9.68002C6.4925 9.3804 5.98724 9.38349 5.67598 9.68723C5.36578 9.99097 5.36898 10.479 5.68344 10.7786L7.71196 12.7144Z" fill="white"/>
</svg>
