<svg width="15" height="11" viewBox="0 0 15 11" fill="none" xmlns="http://www.w3.org/2000/svg">
<path fill-rule="evenodd" clip-rule="evenodd" d="M0 0.611111C0 0.273604 0.30526 0 0.681818 0H14.3182C14.6947 0 15 0.273604 15 0.611111V10.3889C15 10.7264 14.6947 11 14.3182 11H0.681818C0.30526 11 0 10.7264 0 10.3889V0.611111ZM13.6364 1.22222V3.05556H1.36364V1.22222H13.6364ZM3.40909 6.41667C3.03253 6.41667 2.72727 6.69027 2.72727 7.02778C2.72727 7.36529 3.03253 7.63889 3.40909 7.63889H4.09091C4.46747 7.63889 4.77273 7.36529 4.77273 7.02778C4.77273 6.69027 4.46747 6.41667 4.09091 6.41667H3.40909ZM5.45455 7.02778C5.45455 6.69027 5.75981 6.41667 6.13636 6.41667H6.81818C7.19474 6.41667 7.5 6.69027 7.5 7.02778C7.5 7.36529 7.19474 7.63889 6.81818 7.63889H6.13636C5.75981 7.63889 5.45455 7.36529 5.45455 7.02778ZM8.86364 6.41667C8.48708 6.41667 8.18182 6.69027 8.18182 7.02778C8.18182 7.36529 8.48708 7.63889 8.86364 7.63889H9.54545C9.92201 7.63889 10.2273 7.36529 10.2273 7.02778C10.2273 6.69027 9.92201 6.41667 9.54545 6.41667H8.86364Z" fill="#D8D8D8" fill-opacity="0.5"/>
</svg>
