<svg width="15" height="11" viewBox="0 0 15 11" fill="none" xmlns="http://www.w3.org/2000/svg">
<path fill-rule="evenodd" clip-rule="evenodd" d="M13.5 0.611114C13.5 0.435829 13.4076 0.268982 13.2464 0.152978C13.0851 0.0369737 12.8704 -0.0170188 12.657 0.00472242L0.657158 1.22691C0.507389 1.24217 0.373483 1.29242 0.266252 1.36634C0.260711 1.37015 0.255229 1.37403 0.249809 1.37798C0.156326 1.44616 0.0863989 1.53151 0.0446532 1.62562C0.0260713 1.66742 0.0129748 1.71119 0.00598707 1.75625C0.00202094 1.78167 0 1.80741 0 1.83334V9.16667C0 9.47806 0.287352 9.73965 0.667176 9.77404L14.1672 10.9963C14.3792 11.0155 14.5912 10.9602 14.7502 10.8442C14.9092 10.7283 15 10.5627 15 10.3889V3.05556C15 2.74417 14.7126 2.48257 14.3328 2.44819L13.5 2.37279V0.611114ZM12 2.23698V1.30337L7.14716 1.79763L12 2.23698Z" fill="#D8D8D8" fill-opacity="0.75"/>
</svg>
