<svg width="20" height="22" viewBox="0 0 20 22" fill="none" xmlns="http://www.w3.org/2000/svg">
<path fill-rule="evenodd" clip-rule="evenodd" d="M9.17994 5.50026C9.46137 3.99805 9.97862 2.7401 10.7914 1.79736C11.8448 0.575431 13.2928 0 15.0054 0H15.7275L15.9546 0.68541C16.2702 1.63766 16.3611 2.59163 16.2001 3.53196C16.1633 3.74673 16.0982 3.98208 16.0101 4.23434C16.5601 4.45701 17.0632 4.79975 17.5977 5.23459C19.1298 6.48094 20 8.3422 20 11.5145C20 14.6525 19.2053 17.145 17.4591 18.9958C16.5886 19.9184 15.8059 20.6026 14.529 21.1653C13.6751 21.5415 12.871 21.4483 12.1489 21.2868C11.8606 21.2224 11.6173 21.108 11.432 21.0117C11.3503 20.9692 11.2679 20.9237 11.1965 20.8843L11.1694 20.8693C11.0876 20.8242 11.0154 20.7848 10.9424 20.7477C10.6748 20.6119 10.4031 20.5103 10 20.5103C9.58792 20.5103 9.31263 20.6133 9.04996 20.7471C8.94289 20.8016 8.884 20.835 8.81572 20.8738C8.75523 20.9081 8.68719 20.9466 8.57135 21.008C8.39219 21.103 8.15219 21.2193 7.86784 21.2851C7.15965 21.4492 6.32415 21.5412 5.47105 21.1653C4.16475 20.5897 3.40014 19.8115 2.569 18.9306C0.830568 17.0881 0 14.6387 0 11.5145C0 8.38918 0.81732 6.51502 2.21273 5.26538C2.81543 4.72566 3.39749 4.31388 4.07328 4.09912C4.762 3.88024 5.439 3.90008 6.16633 4.02071C6.64266 4.0997 7.08752 4.29396 7.46611 4.4922C7.79701 4.66547 8.13082 4.87143 8.4276 5.05455L8.55475 5.13291C8.78348 5.27351 8.98913 5.39712 9.17994 5.50026ZM11.3679 4.94069C11.6055 4.14692 11.9262 3.54396 12.3062 3.10327C12.7828 2.55041 13.4059 2.19081 14.2363 2.05777C14.2955 2.45413 14.2909 2.83187 14.2288 3.19454C14.2026 3.34744 14.1256 3.59611 13.9731 3.95706C13.7864 3.97003 13.5957 3.99016 13.3996 4.01544C12.5416 4.12602 11.8645 4.56577 11.3679 4.94069ZM6.09409 12.2015C6.20524 11.6605 5.8568 11.1318 5.31582 11.0207C4.77483 10.9095 4.24617 11.2579 4.13502 11.7989C3.96874 12.6082 3.97094 13.4343 4.13285 14.2689C4.30426 15.1522 4.68948 15.9225 5.3463 16.4868C5.7652 16.8467 6.39656 16.7989 6.75648 16.38C7.1164 15.9612 7.0686 15.3298 6.6497 14.9699C6.40513 14.7597 6.20144 14.43 6.09624 13.888C5.98166 13.2973 5.98387 12.7379 6.09409 12.2015Z" fill="#FECA30"/>
</svg>
