<svg width="17" height="22" viewBox="0 0 17 22" fill="none" xmlns="http://www.w3.org/2000/svg">
<path d="M9.09136 0.193595L8.50005 0.999936C8.23834 0.64306 8.0925 0.444091 8.0112 0.333177C7.90881 0.193488 7.90864 0.193595 7.90864 0.193595C8.26063 -0.0645317 8.73937 -0.0645317 9.09136 0.193595Z" fill="#2FB4FF"/>
<path fill-rule="evenodd" clip-rule="evenodd" d="M17 13.5C17 9.65344 14.9502 6.30313 13.0182 3.98482C12.0413 2.81255 11.0667 1.87064 10.3362 1.22134C9.97036 0.896113 9.66402 0.642777 9.44696 0.469131C9.33839 0.382272 9.25202 0.315242 9.19155 0.269019C9.16131 0.245903 9.13754 0.22798 9.12069 0.215372L9.10066 0.200456L9.09465 0.196013L9.09266 0.19455C9.09266 0.19455 9.09136 0.193595 8.50005 0.999936L7.90864 0.193595L7.90734 0.19455L7.90535 0.196013L7.89934 0.200456L7.87931 0.215372C7.86246 0.22798 7.83869 0.245903 7.80845 0.269019C7.74799 0.315242 7.66161 0.382272 7.55304 0.469131C7.33598 0.642777 7.02964 0.896113 6.66376 1.22134C5.9333 1.87064 4.95867 2.81255 3.98178 3.98482C2.04985 6.30313 0 9.65344 0 13.5C0 18.1944 3.80557 22 8.5 22C12.6076 22 16.0347 19.0864 16.8273 15.2131C16.9405 14.6597 17 14.0868 17 13.5ZM14.9684 12.7505C14.728 9.88856 13.1548 7.27286 11.4818 5.26518C10.5837 4.18745 9.6833 3.31686 9.00751 2.71616C8.81855 2.5482 8.64769 2.40181 8.5 2.27838C8.35231 2.40181 8.18145 2.5482 7.99249 2.71616C7.3167 3.31686 6.41633 4.18745 5.51822 5.26518C3.95646 7.1393 2.48171 9.54325 2.09694 12.1827C2.50375 12.0963 2.98067 12.0103 3.50097 11.9452C5.06036 11.7503 7.17837 11.7212 8.94721 12.6056C10.1784 13.2212 11.8104 13.2503 13.251 13.0702C13.9313 12.9852 14.5314 12.8585 14.9684 12.7505Z" fill="#2FB4FF"/>
</svg>
