<svg width="13" height="14" viewBox="0 0 13 14" fill="none" xmlns="http://www.w3.org/2000/svg">
<path d="M3.66549 0.895142H1.97459C0.657722 0.895142 -0.286491 2.14173 0.135009 3.39093C0.977476 5.8877 2.11038 8.09956 3.58649 9.5757C5.06258 11.0518 7.27451 12.1847 9.77124 13.0272C11.0204 13.4487 12.267 12.5044 12.267 11.1876V9.49643C12.267 9.01229 12.0047 8.5663 11.5816 8.3311L10.1084 7.5121L10.0016 7.45876C9.63958 7.29796 9.22224 7.30583 8.86424 7.4849L7.51671 8.1579L7.48478 8.14789C7.43151 8.13056 7.37171 8.10969 7.30624 8.08496C6.97124 7.95836 6.63564 7.78169 6.32484 7.54869C6.18998 7.44756 6.06251 7.33769 5.94351 7.21863C5.82298 7.09816 5.71178 6.9689 5.60944 6.83203C5.37724 6.52136 5.20064 6.18576 5.07371 5.85076L5.01058 5.67216L5.00004 5.6392L5.67351 4.2937C5.87031 3.90022 5.86024 3.43495 5.64671 3.05027L4.83124 1.58132C4.5961 1.15781 4.14984 0.895142 3.66549 0.895142ZM1.97459 2.22847H3.6655L4.48096 3.69738L3.69534 5.26866C3.62958 5.40018 3.60915 5.54975 3.63722 5.69409C3.73568 6.20029 4.00596 6.91376 4.54145 7.63023C4.68124 7.8173 4.83411 7.9949 5.00071 8.1615C5.16531 8.3261 5.34058 8.47723 5.52504 8.6155C6.24304 9.15376 6.95824 9.42396 7.46591 9.52136C7.60971 9.54889 7.75864 9.52836 7.88958 9.46289L9.46058 8.67743L10.9337 9.49643V11.1876C10.9337 11.6092 10.5656 11.888 10.1976 11.7638C7.87898 10.9815 5.82678 9.93036 4.5293 8.6329C3.2318 7.33536 2.1807 5.28318 1.39836 2.96465C1.27415 2.59652 1.55292 2.22847 1.97459 2.22847Z" fill="#231815"/>
</svg>
