<svg width="23" height="22" viewBox="0 0 23 22" fill="none" xmlns="http://www.w3.org/2000/svg">
<path d="M22.7447 6.50759L18.6575 2.59818C18.3171 2.27267 17.7654 2.27267 17.4251 2.59818C17.0848 2.9237 17.0848 3.45148 17.4251 3.77688L19.9811 6.22175V15.6073C19.9811 16.4224 19.2879 17.0855 18.436 17.0855C17.5838 17.0855 16.8905 16.4224 16.8905 15.6073V13.3116C16.8905 11.866 15.8652 10.6457 14.4737 10.2794V5.26387V3.74876C14.4737 2.03161 13.0133 0.634644 11.218 0.634644H5.26605C3.47073 0.634644 2.01027 2.03161 2.01027 3.74876V5.26387V10.9108V19.6982H0.871401C0.390155 19.6982 0 20.0714 0 20.5317C0 20.9921 0.390155 21.3653 0.871401 21.3653H15.6125C16.0939 21.3653 16.4839 20.9921 16.4839 20.5317C16.4839 20.0714 16.0939 19.6982 15.6125 19.6982H14.4737V12.092C14.8803 12.3585 15.1477 12.8056 15.1477 13.3117V15.6074C15.1477 17.3417 16.6227 18.7527 18.436 18.7527C20.249 18.7527 21.7239 17.3417 21.7239 15.6074V7.83543C21.8503 7.89878 21.9894 7.93045 22.1285 7.93045C22.3514 7.93045 22.5745 7.8491 22.7447 7.68629C23.0851 7.36077 23.0851 6.8331 22.7447 6.50759ZM3.75307 6.09739H12.7311V10.0772H3.75307V6.09739ZM5.26605 2.30167H11.218C12.0522 2.30167 12.7309 2.95081 12.7309 3.74888V4.43047H3.75307V3.74888C3.75307 2.95081 4.43172 2.30167 5.26605 2.30167ZM3.75307 19.6982V11.7443H12.7311V19.6982H3.75307Z" fill="#FECA30"/>
</svg>
