<svg width="35" height="38" viewBox="0 0 35 38" fill="none" xmlns="http://www.w3.org/2000/svg">
<path d="M33.8991 17.271L17.1809 0.553297C16.6409 0.0130409 15.8288 -0.148582 15.1234 0.143951C14.4177 0.436233 13.9578 1.12477 13.9578 1.88833V8.47285H1.88813C0.845125 8.47285 0 9.31823 0 10.361V26.8514C0 27.8941 0.845125 28.7395 1.88813 28.7395H13.9578L13.9583 35.324C13.9583 36.0876 14.4182 36.7761 15.1239 37.0684C15.3575 37.1651 15.6027 37.2121 15.8459 37.2121C16.3373 37.2121 16.8202 37.0203 17.1817 36.659L33.8994 19.9413C34.2534 19.5874 34.4522 19.107 34.4522 18.6063C34.4522 18.1056 34.2534 17.625 33.8991 17.271ZM17.7343 30.7658L17.734 26.8511C17.734 25.8084 16.8886 24.963 15.8459 24.963H3.77625V12.2488H15.8459C16.8889 12.2488 17.734 11.4035 17.734 10.3607V6.44676L29.8941 18.6063L17.7343 30.7658Z" fill="white"/>
</svg>
