<svg width="30" height="24" viewBox="0 0 30 24" fill="none" xmlns="http://www.w3.org/2000/svg">
<path d="M29.9169 10.877L28.4652 7.58945C28.3093 7.23643 27.9599 7.00875 27.5741 7.00875H25.1681C24.6301 7.00875 24.194 7.44476 24.194 7.98286V9.51847H23.4456V8.25497C23.4456 7.71687 23.0095 7.28085 22.4715 7.28085H19.878V4.6228C19.878 4.0847 19.4419 3.64869 18.9039 3.64869H14.1119V2.72106H18.9039C19.4419 2.72106 19.878 2.28492 19.878 1.74695C19.878 1.20884 19.4419 0.772827 18.9039 0.772827H7.37187C6.8339 0.772827 6.39775 1.20884 6.39775 1.74695C6.39775 2.28492 6.8339 2.72106 7.37187 2.72106H12.1639V3.64869H7.37187C6.8339 3.64869 6.39775 4.0847 6.39775 4.6228V5.43249H4.26067C3.72269 5.43249 3.28655 5.86851 3.28655 6.40661V11.634H1.94824V6.40661C1.94824 5.86851 1.51209 5.43249 0.974119 5.43249C0.436145 5.43249 0 5.86864 0 6.40661V18.8099C0 19.348 0.436145 19.784 0.974119 19.784C1.51209 19.784 1.94824 19.348 1.94824 18.8099V13.5822H3.28655V18.8099C3.28655 19.348 3.72269 19.784 4.26067 19.784H8.04531L11.8909 23.0001C12.0662 23.1468 12.2873 23.227 12.5159 23.227H22.4716C23.0096 23.227 23.4457 22.791 23.4457 22.2529V19.5975H24.1941V21.1331C24.1941 21.6712 24.6303 22.1072 25.1682 22.1072H27.5742C27.9601 22.1072 28.3095 21.8795 28.4653 21.5265L29.917 18.2389C29.9717 18.115 30 17.981 30 17.8455V11.2705C30 11.1351 29.9717 11.0009 29.9169 10.877ZM28.0518 17.6401L26.9396 20.1591H26.1424V18.6235C26.1424 18.0854 25.7062 17.6494 25.1682 17.6494H22.4716C21.9336 17.6494 21.4975 18.0854 21.4975 18.6235V21.2789H12.8694L9.02385 18.0628C8.84851 17.9161 8.62745 17.8359 8.39885 17.8359H5.23478V7.38073H7.37187C7.90984 7.38073 8.34599 6.94471 8.34599 6.40661V5.59692H17.9299V8.25523C17.9299 8.79333 18.366 9.22935 18.904 9.22935H21.4975V10.4928C21.4975 11.0309 21.9336 11.467 22.4716 11.467H25.1682C25.7062 11.467 26.1424 11.0309 26.1424 10.4928V8.95711H26.9396L28.0518 11.4761V17.6401Z" fill="white"/>
</svg>
