<svg width="35" height="38" viewBox="0 0 35 38" fill="none" xmlns="http://www.w3.org/2000/svg">
<path d="M32.5644 8.47268H20.4945L20.494 1.88816C20.494 1.1246 20.034 0.436066 19.3284 0.143784C18.6225 -0.148498 17.8111 0.0131254 17.2706 0.553129L0.552843 17.2708C0.198883 17.6248 0 18.1051 0 18.6059C0 19.1066 0.198883 19.5869 0.553095 19.9409L17.2713 36.6586C17.6326 37.0199 18.1154 37.2117 18.6068 37.2117C18.85 37.2117 19.0952 37.1646 19.3289 37.068C20.0345 36.7757 20.4945 36.0871 20.4945 35.3236V28.7391H32.5641C33.6071 28.7391 34.4522 27.8937 34.4522 26.8509V10.3606C34.4525 9.31806 33.6071 8.47268 32.5644 8.47268ZM30.6762 24.9631H18.6063C17.5633 24.9631 16.7182 25.8084 16.7182 26.8512V30.7654L4.55819 18.6059L16.718 6.44609L16.7182 10.3608C16.7182 11.4036 17.5636 12.2489 18.6063 12.2489H30.676V24.9631H30.6762Z" fill="white"/>
</svg>
