<svg width="16" height="16" viewBox="0 0 16 16" fill="none" xmlns="http://www.w3.org/2000/svg">
<g clip-path="url(#clip0)">
<path d="M12.9942 9.27884C13.0419 9.57018 13.0666 9.86876 13.0666 10.1733C13.0666 13.218 10.5983 15.6866 7.55328 15.6866C4.50823 15.6866 2.03992 13.218 2.03992 10.1733C2.03992 8.94833 2.43957 7.81689 3.11506 6.90173L3.1154 6.90107L7.55328 0.313232L10.3972 4.53483" fill="#A3E0FB"/>
<path d="M9.02527 7.32126C9.02527 6.77298 9.20398 6.26665 9.50638 5.85709L9.50654 5.85678L11.4926 2.90845L13.4787 5.85678L13.4788 5.85709C13.7812 6.26662 13.96 6.77298 13.96 7.32126C13.96 8.68386 12.8554 9.78864 11.4926 9.78864C10.1298 9.78864 9.02527 8.68389 9.02527 7.32126Z" fill="#4696E6"/>
<path d="M6.24229 13.7695C4.69904 13.2897 3.66216 11.8804 3.66216 10.2627C3.66216 9.47197 3.9097 8.71863 4.37806 8.0841C4.38875 8.06962 4.3984 8.0538 4.40645 8.0377C4.48383 7.88296 4.42099 7.695 4.26621 7.61762C4.12613 7.54747 3.95858 7.59252 3.87067 7.7164C3.32436 8.45856 3.03558 9.33895 3.03558 10.2627C3.03558 11.1982 3.33097 12.0876 3.88978 12.8348C4.42992 13.557 5.1993 14.1015 6.05625 14.3679C6.08723 14.3775 6.11857 14.3821 6.14936 14.3821C6.28293 14.3821 6.40671 14.296 6.44844 14.1617C6.49983 13.9965 6.40753 13.8209 6.24229 13.7695Z" fill="black"/>
<path d="M14.2733 7.32129C14.2733 6.72491 14.0875 6.15673 13.7357 5.67756L11.7525 2.7334C11.6942 2.64696 11.5969 2.59514 11.4926 2.59514C11.3884 2.59514 11.291 2.64696 11.2328 2.7334L10.3971 3.974L7.81311 0.138262C7.7549 0.0518207 7.65749 0 7.55329 0C7.44908 0 7.35168 0.0518207 7.29346 0.138262L2.85781 6.72278C2.11772 7.72852 1.72662 8.92146 1.72662 10.1733C1.72662 13.3862 4.34047 16 7.55329 16C10.7661 16 13.38 13.3862 13.38 10.1733C13.38 9.91686 13.3628 9.65992 13.3295 9.40699C13.9078 8.89706 14.2733 8.15111 14.2733 7.32129ZM11.4926 3.46923L13.216 6.02749C13.2194 6.03282 13.223 6.03805 13.2268 6.04319C13.5015 6.41518 13.6467 6.85712 13.6467 7.32126C13.6467 8.509 12.6804 9.47529 11.4926 9.47529C10.3049 9.47529 9.33859 8.509 9.33859 7.32126C9.33859 6.85712 9.48378 6.41518 9.75846 6.04319C9.76209 6.03827 9.76557 6.03326 9.76892 6.02809L10.6563 4.7108C10.6579 4.70838 10.6596 4.706 10.6612 4.70353L11.4926 3.46923ZM12.7533 10.1733C12.7533 13.0407 10.4206 15.3734 7.55326 15.3734C4.68592 15.3734 2.3532 13.0407 2.3532 10.1733C2.3532 9.05346 2.70379 7.9865 3.36712 7.08787C3.37091 7.08277 3.37458 7.07741 3.37812 7.07193L7.55329 0.874059L10.0193 4.53478L9.24952 5.67759C8.89784 6.15673 8.71198 6.72494 8.71198 7.32129C8.71198 8.85454 9.95938 10.1019 11.4926 10.1019C11.941 10.1019 12.3648 9.99513 12.7402 9.80586C12.7487 9.92805 12.7533 10.0507 12.7533 10.1733Z" fill="black"/>
<path d="M10.388 7.24495C10.388 7.09316 10.4189 6.94666 10.4799 6.80952C10.5502 6.6514 10.4789 6.46623 10.3209 6.39596C10.1627 6.32575 9.97759 6.39684 9.90729 6.55496C9.81045 6.77277 9.76135 7.0049 9.76135 7.24495C9.76135 7.81357 10.0438 8.34211 10.5169 8.65868C10.5705 8.69449 10.631 8.71159 10.6909 8.71159C10.792 8.71159 10.8912 8.66278 10.9516 8.57252C11.0478 8.42868 11.0092 8.23409 10.8654 8.13787C10.5664 7.93783 10.388 7.60403 10.388 7.24495Z" fill="black"/>
<path d="M7.40474 14.2034C7.32805 14.0018 7.04187 13.9443 6.89374 14.1019C6.71738 14.2728 6.81231 14.5866 7.05415 14.6305C7.29393 14.683 7.50293 14.4285 7.40474 14.2034Z" fill="black"/>
<path d="M11.3276 8.94408C11.5296 9.08401 11.8189 8.9293 11.8148 8.68373C11.8193 8.43812 11.5295 8.2831 11.3276 8.42305C11.1447 8.53772 11.1439 8.82979 11.3276 8.94408Z" fill="black"/>
</g>
<defs>
<clipPath id="clip0">
<rect width="16" height="16" fill="white"/>
</clipPath>
</defs>
</svg>
